HIERARCHY
ROOT Hips
{
	OFFSET 0.00000 0.00000 0.00000
	CHANNELS 6 Xposition Yposition Zposition Zrotation Yrotation Xrotation 
	JOINT LHipJoint
	{
		OFFSET 0 0 0
		CHANNELS 3 Zrotation Yrotation Xrotation
		JOINT LeftUpLeg
		{
			OFFSET 1.73240 -1.89999 0.57994
			CHANNELS 3 Zrotation Yrotation Xrotation
			JOINT LeftLeg
			{
				OFFSET 2.43106 -6.67930 0.00000
				CHANNELS 3 Zrotation Yrotation Xrotation
				JOINT LeftFoot
				{
					OFFSET 2.78854 -7.66147 0.00000
					CHANNELS 3 Zrotation Yrotation Xrotation
					JOINT LeftToeBase
					{
						OFFSET 0.17314 -0.47571 2.01064
						CHANNELS 3 Zrotation Yrotation Xrotation
						End Site
						{
							OFFSET 0.00000 -0.00000 1.04147
						}
					}
				}
			}
		}
	}
	JOINT RHipJoint
	{
		OFFSET 0 0 0
		CHANNELS 3 Zrotation Yrotation Xrotation
		JOINT RightUpLeg
		{
			OFFSET -1.57078 -1.89998 0.57994
			CHANNELS 3 Zrotation Yrotation Xrotation
			JOINT RightLeg
			{
				OFFSET -2.50166 -6.87326 0.00000
				CHANNELS 3 Zrotation Yrotation Xrotation
				JOINT RightFoot
				{
					OFFSET -2.77304 -7.61886 0.00000
					CHANNELS 3 Zrotation Yrotation Xrotation
					JOINT RightToeBase
					{
						OFFSET -0.23513 -0.64602 2.11039
						CHANNELS 3 Zrotation Yrotation Xrotation
						End Site
						{
							OFFSET -0.00000 -0.00000 1.10597
						}
					}
				}
			}
		}
	}
	JOINT LowerBack
	{
		OFFSET 0 0 0
		CHANNELS 3 Zrotation Yrotation Xrotation
		JOINT Spine
		{
			OFFSET -0.00908 2.00015 -0.35323
			CHANNELS 3 Zrotation Yrotation Xrotation
			JOINT Spine1
			{
				OFFSET 0.05647 2.02258 0.04270
				CHANNELS 3 Zrotation Yrotation Xrotation
				JOINT Neck
				{
					OFFSET 0 0 0
					CHANNELS 3 Zrotation Yrotation Xrotation
					JOINT Neck1
					{
						OFFSET -0.02074 1.73711 0.13117
						CHANNELS 3 Zrotation Yrotation Xrotation
						JOINT Head
						{
							OFFSET -0.02359 1.73615 -0.24320
							CHANNELS 3 Zrotation Yrotation Xrotation
							End Site
							{
								OFFSET -0.00579 1.75982 -0.09688
							}
						}
					}
				}
				JOINT LeftShoulder
				{
					OFFSET 0 0 0
					CHANNELS 3 Zrotation Yrotation Xrotation
					JOINT LeftArm
					{
						OFFSET 3.20537 1.11432 -0.27680
						CHANNELS 3 Zrotation Yrotation Xrotation
						JOINT LeftForeArm
						{
							OFFSET 5.05923 -0.00000 -0.00000
							CHANNELS 3 Zrotation Yrotation Xrotation
							JOINT LeftHand
							{
								OFFSET 3.51996 -0.00000 0.00000
								CHANNELS 3 Zrotation Yrotation Xrotation
								JOINT LeftFingerBase
								{
									OFFSET 0 0 0
									CHANNELS 3 Zrotation Yrotation Xrotation
									JOINT LeftHandIndex1
									{
										OFFSET 0.65238 -0.00000 0.00000
										CHANNELS 3 Zrotation Yrotation Xrotation
										End Site
										{
											OFFSET 0.52596 -0.00000 0.00000
										}
									}
								}
								JOINT LThumb
								{
									OFFSET 0 0 0
									CHANNELS 3 Zrotation Yrotation Xrotation
									End Site
									{
										OFFSET 0.53399 -0.00000 0.53399
									}
								}
							}
						}
					}
				}
				JOINT RightShoulder
				{
					OFFSET 0 0 0
					CHANNELS 3 Zrotation Yrotation Xrotation
					JOINT RightArm
					{
						OFFSET -2.96983 1.42602 -0.37449
						CHANNELS 3 Zrotation Yrotation Xrotation
						JOINT RightForeArm
						{
							OFFSET -5.40867 -0.00000 0.00000
							CHANNELS 3 Zrotation Yrotation Xrotation
							JOINT RightHand
							{
								OFFSET -3.12964 -0.00000 0.00000
								CHANNELS 3 Zrotation Yrotation Xrotation
								JOINT RightFingerBase
								{
									OFFSET 0 0 0
									CHANNELS 3 Zrotation Yrotation Xrotation
									JOINT RightHandIndex1
									{
										OFFSET -0.83271 -0.00000 0.00000
										CHANNELS 3 Zrotation Yrotation Xrotation
										End Site
										{
											OFFSET -0.67135 -0.00000 0.00000
										}
									}
								}
								JOINT RThumb
								{
									OFFSET 0 0 0
									CHANNELS 3 Zrotation Yrotation Xrotation
									End Site
									{
										OFFSET -0.68160 -0.00000 0.68160
									}
								}
							}
						}
					}
				}
			}
		}
	}
}
MOTION
Frames: 16
Frame Time: 0.0060241
0.00 0.00 0.00 0 0 0 0 0 0 -21 0 0 0 0 0 0 0 0 0 0 0 0 0 0 21 0 0 0 0 0 0 0 0 0 0 0 0 0 0 0 0 0 0 0 0 0 0 -16 0 0 21 0 0 11 0 0 0 -8 0 0 0 0 0 0 0 0 0 0 0 0 0 0 0 0 0 0 0 0 8 0 0 0 0 0 0 0 0 0 0 0 0 0 0 0 0 0
0.00 0.00 0.00 -178.3240 -3.4372 177.2790 0.0000 0.0000 0.0000 -19.3879 -8.1429 -5.4736 4.1976 12.4189 37.2303 1.6537 -2.3935 -23.6705 0.0801 -1.8261 -5.0252 0.0000 0.0000 0.0000 26.6605 3.9224 -5.4655 -4.3081 -12.5595 37.7412 -1.9057 -8.4638 -30.2660 -0.1974 -2.8613 7.8929 -5.5402 -1.1147 15.8968 2.8210 -2.3850 -0.2650 6.7889 -0.8764 -8.8919 -2.9554 -3.4792 -6.7053 -4.6890 -0.6800 27.9874 -1.0501 -0.2044 10.0001 -0.0000 -0.0000 0.0000 -87.5287 14.8164 13.5923 27.0047 -38.1837 -9.5020 -0.0000 0.0000 -11.7599 -155.1683 -62.3821 -22.2942 -7.1250 0.0000 -0.0000 161.8955 54.4527 -4.3117 -0.0000 -0.0000 0.0000 51.2350 4.7209 -54.1480 -71.8910 58.7239 -44.3843 0.0000 -0.0000 -44.2501 -7.6030 -3.2205 0.4296 7.1250 -0.0000 -0.0000 15.3424 -32.9388 4.6791
0.00 0.00 0.00 -178.0450 -1.6831 177.1770 0.0000 0.0000 0.0000 -18.9339 -7.7767 -6.1039 4.6040 12.9234 39.0825 1.6818 -1.2685 -24.1628 0.1782 -2.7191 -7.4977 0.0000 0.0000 0.0000 27.0877 4.0509 -5.2633 -4.3865 -12.6577 38.1001 -1.9737 -7.4587 -30.0751 -0.1501 -2.4967 6.8805 -4.4650 -1.1161 16.6150 2.9024 -2.2555 0.1691 6.2542 -0.8937 -8.8755 -2.3338 -2.9946 -6.7459 -5.1262 0.0803 28.1853 -1.2330 0.1703 10.0823 -0.0000 0.0000 0.0000 -87.8878 15.1117 12.7368 26.9399 -38.1218 -9.4620 -0.0000 0.0000 -11.8694 -154.7597 -62.5403 -22.7001 -7.1250 0.0000 -0.0000 162.1210 54.2542 -4.1675 -0.0000 0.0000 0.0000 55.0556 3.2563 -46.6283 -91.7314 59.9887 -61.4994 0.0000 -0.0000 -36.2824 -8.1094 -2.1521 0.3066 7.1250 -0.0000 -0.0000 14.7606 -31.9154 4.8679
0.00 0.00 0.00 -177.8550 0.4764 177.0620 0.0000 0.0000 0.0000 -18.4358 -7.5448 -7.9961 5.5255 13.9522 43.0461 1.5384 0.4724 -23.6363 0.5661 -4.8188 -13.3924 0.0000 0.0000 0.0000 27.6643 5.0164 -4.8965 -4.4652 -12.7549 38.4579 -1.9896 -6.9418 -29.8717 -0.1202 -2.2352 6.1561 -4.2609 -1.2674 17.8369 3.2489 -1.9549 0.9756 6.4491 -0.5817 -8.6926 -2.0781 -2.2811 -7.6730 -5.4073 1.1147 28.2984 -1.2781 0.5931 10.3267 0.0000 -0.0000 0.0000 -88.8858 14.5936 11.7357 26.8912 -38.0753 -9.4320 -0.0000 0.0000 -11.7545 -155.8150 -62.3118 -21.6865 -7.1250 0.0000 -0.0000 161.5285 54.5943 -4.4684 0.0000 -0.0000 0.0000 59.6902 3.5623 -37.1736 -109.3764 58.5327 -76.6978 0.0000 -0.0000 -26.8659 -11.1866 -0.8187 0.1619 7.1250 -0.0000 -0.0000 12.1580 -30.6815 4.3395
0.00 0.00 0.00 -176.5380 3.1844 177.4390 0.0000 0.0000 0.0000 -14.3442 -8.6329 -18.0741 9.7177 17.2480 58.5406 0.4684 -1.1391 -12.5832 0.4012 -4.0664 -11.2636 0.0000 0.0000 0.0000 29.5859 5.3909 -4.4846 -4.3799 -12.6495 38.0701 -2.0640 -5.8426 -29.7316 -0.0830 -1.8582 5.1139 -2.4110 -1.4590 19.4930 3.8268 -1.5632 2.4904 5.9278 -0.3968 -8.0281 -1.6480 -1.6004 -7.3287 -5.8930 1.9881 27.5724 -1.4299 0.9605 10.0165 0.0000 -0.0000 0.0000 -89.1108 12.4737 14.1450 25.8346 -37.0450 -8.7878 -0.0000 0.0000 -11.1619 -153.8887 -62.4009 -23.4786 -7.1250 0.0000 -0.0000 162.6153 54.2741 -4.0553 0.0000 -0.0000 0.0000 71.7352 6.1160 -13.4467 -113.9593 57.7158 -80.5903 0.0000 -0.0000 -2.2961 -18.5257 2.5845 -0.8657 7.1250 -0.0000 -0.0000 6.1819 -27.2401 2.6812
0.00 0.00 0.00 -175.1650 3.9674 177.8430 0.0000 0.0000 0.0000 -11.2185 -10.1550 -23.4497 11.3383 18.0967 63.8755 0.3268 -5.7417 -10.3337 0.4480 -4.2942 -11.9060 0.0000 0.0000 0.0000 31.3363 5.3741 -4.1930 -4.2616 -12.5006 37.5267 -2.0566 -5.6404 -29.5774 -0.0493 -1.4329 3.9408 -1.0469 -1.5086 21.0566 4.4509 -1.0982 3.0295 5.7474 -0.1295 -8.3548 -1.8655 -1.8609 -7.7630 -6.0331 1.6478 27.5292 -1.4830 0.7319 10.0788 0.0000 0.0000 0.0000 -89.4009 11.3205 16.2236 26.8716 -38.0564 -9.4198 -0.0000 0.0000 -11.6254 -154.8914 -62.1489 -22.5060 -7.1250 0.0000 -0.0000 162.0585 54.6387 -4.3534 0.0000 0.0000 0.0000 77.0667 8.3563 -2.5940 -96.5396 59.8378 -65.6604 0.0000 0.0000 5.0175 -22.2488 4.3618 -1.7820 7.1250 -0.0000 -0.0000 3.3096 -25.2680 1.5827
0.00 0.00 0.00 -174.8580 5.3142 178.0100 0.0000 0.0000 0.0000 -10.1041 -10.6084 -26.0586 11.1568 18.0110 63.2897 0.3411 -6.9818 -10.7775 0.3798 -3.9577 -10.9576 0.0000 0.0000 0.0000 31.7197 5.4814 -3.0645 -4.0651 -12.2465 36.6097 -2.1143 -4.8313 -29.5286 -0.0441 -1.3555 3.7276 -0.2276 -0.9243 21.7965 4.5077 -0.0042 3.7822 5.0246 0.4169 -8.0408 -1.9560 -2.2298 -8.1147 -6.1146 1.1297 27.4472 -1.5558 0.4518 10.1040 -0.0000 -0.0000 0.0000 -89.3799 8.9347 18.0958 27.0100 -38.1887 -9.5053 -0.0000 0.0000 -11.4844 -154.8729 -62.4070 -22.5710 -7.1250 0.0000 -0.0000 162.0620 54.3936 -4.2438 -0.0000 -0.0000 0.0000 80.0405 11.0119 3.0969 -73.1346 58.8975 -45.4482 0.0000 0.0000 6.4696 -23.8813 4.9323 -2.1800 7.1250 -0.0000 -0.0000 2.0858 -24.5884 1.0294
0.00 0.00 0.00 -176.5350 3.6152 180.7340 0.0000 0.0000 0.0000 -8.5305 -17.8489 -32.1353 6.4433 14.8446 46.7361 0.4855 -7.7747 -12.7495 1.3585 -7.3776 -20.8390 0.0000 0.0000 0.0000 31.7902 6.4941 -0.6577 -3.6029 -11.6123 34.3740 -2.3759 -7.3602 -32.4572 -0.1930 -2.8291 7.8034 0.1450 0.8853 23.6542 4.2918 2.6489 4.5302 3.7777 1.7477 -8.3965 -3.1568 -4.0076 -9.2332 -4.8471 -1.5408 27.4012 -1.2160 -0.8172 10.2685 -0.0000 -0.0000 0.0000 -89.7660 2.0462 28.4705 33.1352 -43.4337 -13.5149 -0.0000 0.0000 -13.2167 -155.5572 -63.3129 -22.1022 -7.1250 0.0000 -0.0000 161.6647 53.6230 -3.9923 -0.0000 -0.0000 0.0000 80.3292 20.9778 8.5987 -20.1108 30.7756 -5.5879 0.0000 -0.0000 -1.7059 2.9108 -0.2194 -0.0112 7.1250 -0.0000 -0.0000 22.7615 -29.7065 9.1581
0.00 0.00 0.00 -180.0170 -2.8709 181.5450 0.0000 0.0000 0.0000 -11.2557 -17.7192 -30.2135 7.7177 15.9076 51.5394 0.2139 -16.1994 -13.4624 1.0302 -6.4561 -18.1137 0.0000 0.0000 0.0000 28.2154 -4.5694 -6.5990 -7.6116 -15.8260 51.1514 -1.9679 -3.1413 -27.7785 -0.2977 3.5084 -9.6976 -1.9052 2.2076 24.7508 1.5913 1.5450 4.8370 2.4286 0.3778 -8.5231 -4.3787 -2.6463 -10.3190 1.0032 -5.0442 26.8726 0.3885 -3.2634 10.4138 -0.0000 -0.0000 0.0000 -90.1314 -4.6215 40.0915 50.9867 -53.3858 -26.9641 -0.0000 0.0000 -20.1279 -152.2470 -62.9192 -25.1032 -7.1250 0.0000 -0.0000 163.4703 53.5606 -3.5556 -0.0000 -0.0000 0.0000 85.2890 6.5294 17.4404 -22.0261 33.0065 -6.6000 0.0000 0.0000 3.8793 -8.6046 5.8290 -0.8804 7.1250 -0.0000 -0.0000 13.3706 -24.0936 6.9302
0.00 0.00 0.00 -180.5120 -2.5203 181.1840 0.0000 0.0000 0.0000 -12.1975 -18.3393 -27.6166 7.8968 16.0429 52.1903 0.5768 -14.7505 -15.9447 1.0780 -6.5994 -18.5340 0.0000 0.0000 0.0000 24.9426 -6.5608 -12.8091 -10.9251 -17.8982 62.5381 -0.5817 0.9381 -14.1161 -0.0005 -0.1372 0.3771 -2.5672 2.3019 25.1593 1.0807 1.3779 5.0466 2.2979 0.2817 -8.4958 -4.1355 -2.5167 -9.5707 1.9748 -5.0830 25.9379 0.7160 -3.1286 9.9468 -0.0000 0.0000 0.0000 -90.9897 -5.4741 40.6151 55.4499 -54.9702 -30.5841 -0.0000 0.0000 -21.8065 -147.1512 -65.3723 -30.4099 -7.1250 0.0000 -0.0000 165.4916 50.4745 -1.9939 -0.0000 0.0000 0.0000 84.9036 4.0580 19.3542 -23.0740 34.1696 -7.1798 0.0000 0.0000 0.9456 -7.4686 3.8247 -0.5010 7.1250 -0.0000 -0.0000 14.4151 -26.0673 6.8194
0.00 0.00 0.00 -182.6120 0.1693 180.7900 0.0000 0.0000 0.0000 -15.3744 -17.1045 -21.4196 7.3293 15.6030 50.1090 1.1947 -12.1178 -20.0681 1.5532 -7.8658 -22.3072 0.0000 0.0000 0.0000 17.1992 -7.0892 -22.7669 -15.2559 -19.4516 76.0062 -0.4586 0.9195 -12.5049 -0.0578 -1.5514 4.2675 -5.4792 1.3205 26.0386 -0.3205 1.1466 4.1272 2.3358 1.1267 -9.9332 -2.0743 -1.4397 -7.7149 1.5698 -4.1529 26.0450 0.3501 -2.6629 9.5404 0.0000 -0.0000 0.0000 -91.9577 -2.2225 36.5768 79.8546 -59.6075 -51.2254 -0.0000 0.0000 -26.5569 -154.3201 -56.2337 -21.7878 -7.1250 0.0000 -0.0000 162.5190 60.1951 -6.5994 0.0000 -0.0000 0.0000 83.8645 -2.1482 21.7109 -25.6588 36.8698 -8.6821 0.0000 0.0000 1.9207 -5.2626 5.2480 -0.4827 7.1250 -0.0000 -0.0000 15.8634 -24.6905 8.0865
0.00 0.00 0.00 -183.0730 2.9326 180.9060 0.0000 0.0000 0.0000 -16.2830 -15.4485 -16.7302 6.5431 14.9348 47.1244 1.3686 -9.4567 -21.0021 2.1705 -9.2126 -26.4628 0.0000 0.0000 0.0000 13.3695 -6.0835 -28.7461 -15.6402 -19.5380 77.1577 -0.7035 -3.6049 -17.5568 -0.0385 -1.2669 3.4834 -6.4559 1.0029 26.1828 -0.5747 0.3498 3.8685 2.8826 0.7719 -10.2315 -1.2265 -2.5629 -8.6389 0.6568 -1.7822 26.0740 0.3537 -0.2459 9.6674 -0.0000 0.0000 0.0000 -91.9509 -0.9535 28.7330 99.3297 -59.6685 -68.0708 -0.0000 0.0000 -22.6089 -156.7306 -67.3980 -21.6534 -7.1250 0.0000 -0.0000 161.0398 49.9319 -2.3809 -0.0000 0.0000 0.0000 82.4739 -4.5600 22.2695 -27.3177 38.4805 -9.6962 0.0000 0.0000 1.3764 -5.2599 6.8657 -0.6305 7.1250 -0.0000 -0.0000 15.6809 -23.1273 8.5769
0.00 0.00 0.00 -183.2720 5.9931 181.4010 0.0000 0.0000 0.0000 -16.5088 -13.8582 -11.8929 5.6949 14.1261 43.7448 1.1553 -6.5357 -19.1978 3.0233 -10.7327 -31.3835 0.0000 0.0000 0.0000 10.3729 -3.0407 -33.7944 -13.0857 -18.8129 69.3916 -0.8143 -7.0612 -21.0282 -0.1528 -2.5192 6.9428 -6.7847 0.7433 25.4947 -0.5625 -0.0476 4.0162 3.2251 0.5639 -9.6632 -0.4799 -1.4263 -9.6311 -0.0440 -0.4160 25.1372 0.1096 0.2843 9.5028 0.0000 0.0000 0.0000 -89.8621 -1.2482 16.3501 117.1777 -57.0163 -83.3008 -0.0000 0.0000 -29.0662 -158.6967 -63.5429 -19.2446 -7.1250 0.0000 -0.0000 159.9856 53.7207 -4.4292 0.0000 0.0000 0.0000 81.3664 -6.8885 21.1724 -29.8684 40.7803 -11.3235 0.0000 -0.0000 -2.6275 -7.6516 4.4612 -0.5987 7.1250 -0.0000 -0.0000 14.2079 -25.4445 6.9293
0.00 0.00 0.00 -183.1430 9.2854 182.6310 0.0000 0.0000 0.0000 -16.0934 -12.0889 -6.6893 4.5860 12.9018 39.0020 0.6476 -3.3921 -14.4284 3.4333 -11.3654 -33.5224 0.0000 0.0000 0.0000 7.4787 2.5485 -36.1977 -8.0345 -16.1446 52.6869 -0.8319 -7.9064 -21.8458 -0.1907 -2.8125 7.7572 -6.5756 0.4948 25.3474 -0.3740 -0.5143 3.1415 3.4817 0.3110 -10.5422 -0.3035 -0.4766 -8.8285 -0.1484 0.7857 24.1291 0.1585 0.8110 8.9958 0.0000 -0.0000 0.0000 -83.7738 1.3259 4.3179 129.0300 -53.3793 -93.0493 -0.0000 0.0000 -28.0002 -157.2166 -64.3839 -20.7435 -7.1250 0.0000 -0.0000 160.8020 52.7940 -3.7941 0.0000 -0.0000 0.0000 80.3699 -9.8947 19.0827 -30.5778 41.3835 -11.7897 0.0000 -0.0000 -8.4193 -10.0266 4.5581 -0.8050 7.1250 -0.0000 -0.0000 12.4444 -25.3309 6.0601
0.00 0.00 0.00 -183.6220 10.6413 182.9780 0.0000 0.0000 0.0000 -16.2498 -9.6550 -0.0156 3.2877 11.1468 32.7766 0.2889 0.7329 -10.4449 1.8694 -8.5885 -24.5165 0.0000 0.0000 0.0000 3.7604 7.7783 -34.2336 -3.8036 -11.8944 35.3595 0.6317 -14.8580 -11.1133 -0.1200 -2.2329 6.1497 -6.3063 0.2090 24.4330 -0.2616 -0.7975 3.0399 3.5414 0.1334 -10.1483 0.2859 -0.1920 -8.6903 -0.3457 1.0012 23.4000 0.0029 0.9058 8.7208 0.0000 0.0000 0.0000 -74.7086 1.3710 -3.3340 133.3496 -51.5519 -96.4757 -0.0000 0.0000 -29.3743 -154.8685 -64.9789 -23.0294 -7.1250 0.0000 -0.0000 161.9601 51.9840 -3.1877 0.0000 0.0000 0.0000 79.7900 -12.4189 16.0395 -31.1191 41.8336 -12.1492 0.0000 -0.0000 -10.4671 -8.4295 5.3066 -0.7852 7.1250 -0.0000 -0.0000 13.5486 -24.6094 6.8607
0.00 0.00 0.00 -182.6870 9.7329 180.7710 0.0000 0.0000 0.0000 -13.0925 -8.3774 9.3226 3.0891 10.8379 31.7351 -0.0169 4.2336 -5.3207 3.7074 -11.7604 -34.8897 0.0000 0.0000 0.0000 7.8556 3.9936 -35.6764 -5.3413 -13.7581 42.2771 0.4437 -13.2952 -11.6487 -0.0397 -1.2853 3.5341 -5.8700 0.0001 24.0410 1.0781 -0.7242 3.5190 4.7552 0.1579 -9.3923 0.2996 -0.2162 -8.5557 0.3978 0.8556 23.7942 0.2427 0.9393 8.8272 0.0000 -0.0000 0.0000 -59.2929 -6.5877 -8.7019 117.7961 -56.8692 -83.8191 -0.0000 0.0000 -31.5824 -151.4874 -61.2235 -25.4616 -7.1250 0.0000 -0.0000 164.1133 55.0309 -3.9877 0.0000 -0.0000 0.0000 79.0962 -14.7201 12.4247 -28.8456 39.8831 -10.6616 0.0000 -0.0000 -7.9090 -9.0828 3.8288 -0.6116 7.1250 -0.0000 -0.0000 13.2170 -26.0588 6.2243
